<svg width="156" height="36" viewBox="0 0 156 36" fill="none" xmlns="http://www.w3.org/2000/svg">
<path d="M4.89 31.73C3.33 31.35 2.15 30.54 1.35 29.3C0.55 28.08 0.17 26.59 0.21 24.83C0.27 23.05 0.77 21.07 1.71 18.89C2.67 16.71 4.12 14.46 6.06 12.14C7.46 10.46 9 8.99 10.68 7.73C12.36 6.47 14.05 5.44 15.75 4.64C17.45 3.82 19.11 3.22 20.73 2.84C22.35 2.46 23.82 2.31 25.14 2.39C25.42 2.09 25.7 1.8 25.98 1.52C26.28 1.24 26.58 0.959998 26.88 0.679998C27.6 0.639999 28.16 0.749999 28.56 1.01C28.98 1.27 29.22 1.62 29.28 2.06C29.06 2.22 28.85 2.38 28.65 2.54C28.45 2.7 28.24 2.86 28.02 3.02C28.5 3.26 28.91 3.55 29.25 3.89C29.23 4.13 29.19 4.4 29.13 4.7C29.07 5 28.97 5.3 28.83 5.6C28.71 5.88 28.55 6.14 28.35 6.38C28.15 6.62 27.92 6.8 27.66 6.92C28.04 7.22 28.32 7.62 28.5 8.12C28.68 8.6 28.77 9.16 28.77 9.8C28.79 10.44 28.71 11.14 28.53 11.9C28.37 12.66 28.14 13.46 27.84 14.3C28.62 14.28 29.41 14.22 30.21 14.12C31.03 14.02 31.8 13.88 32.52 13.7C33.26 13.52 33.94 13.32 34.56 13.1C35.18 12.88 35.7 12.64 36.12 12.38C36.5 12.42 36.73 12.51 36.81 12.65C36.89 12.79 36.91 12.97 36.87 13.19C36.87 13.23 36.86 13.27 36.84 13.31C36.84 13.33 36.84 13.36 36.84 13.4L36.69 13.64C35.13 14.54 33.49 15.23 31.77 15.71C30.07 16.17 28.45 16.42 26.91 16.46C26.35 17.62 25.67 18.81 24.87 20.03C24.09 21.25 23.22 22.43 22.26 23.57C21.32 24.71 20.29 25.79 19.17 26.81C18.07 27.81 16.91 28.69 15.69 29.45C14.49 30.21 13.24 30.82 11.94 31.28C10.64 31.76 9.33 32.02 8.01 32.06C7.65 33.3 7.48 34.34 7.5 35.18C7.28 35.28 7.01 35.32 6.69 35.3C6.37 35.28 6.04 35.21 5.7 35.09C5.38 34.99 5.07 34.83 4.77 34.61C4.49 34.41 4.28 34.16 4.14 33.86C4.24 33.52 4.35 33.17 4.47 32.81C4.61 32.47 4.76 32.11 4.92 31.73H4.89ZM6.6 28.07C7.46 26.37 8.46 24.56 9.6 22.64C10.76 20.7 12.02 18.74 13.38 16.76C14.74 14.78 16.19 12.81 17.73 10.85C19.27 8.87 20.85 6.99 22.47 5.21C21.35 5.27 20.13 5.48 18.81 5.84C17.49 6.2 16.15 6.74 14.79 7.46C13.43 8.18 12.07 9.09 10.71 10.19C9.37 11.27 8.11 12.56 6.93 14.06C5.59 15.78 4.62 17.39 4.02 18.89C3.42 20.39 3.13 21.75 3.15 22.97C3.17 24.17 3.48 25.21 4.08 26.09C4.68 26.97 5.52 27.63 6.6 28.07ZM9.24 28.64C10.38 28.74 11.5 28.64 12.6 28.34C13.7 28.04 14.76 27.6 15.78 27.02C16.8 26.42 17.76 25.72 18.66 24.92C19.58 24.1 20.43 23.22 21.21 22.28C21.99 21.34 22.69 20.37 23.31 19.37C23.95 18.35 24.49 17.35 24.93 16.37C23.57 16.21 22.4 15.83 21.42 15.23C20.46 14.61 19.82 13.76 19.5 12.68L19.41 12.2C18.37 13.52 17.36 14.89 16.38 16.31C15.4 17.73 14.47 19.15 13.59 20.57C12.71 21.97 11.9 23.36 11.16 24.74C10.42 26.1 9.78 27.4 9.24 28.64ZM21.84 11.96C21.98 12.64 22.4 13.16 23.1 13.52C23.8 13.88 24.68 14.12 25.74 14.24C26.2 12.76 26.37 11.55 26.25 10.61C26.13 9.67 25.67 9.13 24.87 8.99C24.47 8.93 24.07 8.98 23.67 9.14C23.29 9.3 22.95 9.53 22.65 9.83C22.35 10.13 22.12 10.47 21.96 10.85C21.8 11.23 21.76 11.6 21.84 11.96ZM24.48 6.32C25 6.26 25.61 6.28 26.31 6.38C26.75 6.44 27.1 6.55 27.36 6.71C27.06 6.13 26.39 5.7 25.35 5.42L24.48 6.32ZM29.0208 27.62C28.2608 27.08 27.7708 26.44 27.5508 25.7C27.3108 24.94 27.2908 24.14 27.4908 23.3C27.6708 22.44 28.0208 21.56 28.5408 20.66C29.0608 19.74 29.6808 18.86 30.4008 18.02C31.1408 17.16 31.9508 16.36 32.8308 15.62C33.7308 14.88 34.6308 14.24 35.5308 13.7L35.5608 13.64C35.7608 13.24 36.1208 12.88 36.6408 12.56C37.1808 12.22 37.7908 11.95 38.4708 11.75C39.1508 11.53 39.8608 11.38 40.6008 11.3C41.3608 11.2 42.0508 11.18 42.6708 11.24C43.3108 11.28 43.8508 11.4 44.2908 11.6C44.7508 11.8 45.0208 12.08 45.1008 12.44C45.2208 12.98 45.1808 13.62 44.9808 14.36C44.7808 15.08 44.4608 15.85 44.0208 16.67C43.6008 17.49 43.0808 18.34 42.4608 19.22C41.8408 20.08 41.1608 20.93 40.4208 21.77C41.1408 21.87 41.9008 21.8 42.7008 21.56C43.5008 21.3 44.2808 20.85 45.0408 20.21C45.3808 20.17 45.6408 20.29 45.8208 20.57C46.0208 20.85 46.1008 21.13 46.0608 21.41C44.9608 22.37 43.7808 23 42.5208 23.3C41.2808 23.58 40.1208 23.57 39.0408 23.27C38.1608 24.15 37.2508 24.95 36.3108 25.67C35.3908 26.39 34.4908 26.97 33.6108 27.41C32.7308 27.83 31.8908 28.08 31.0908 28.16C30.3108 28.22 29.6208 28.04 29.0208 27.62ZM31.0908 24.65C31.4108 24.89 31.7908 25.02 32.2308 25.04C32.6908 25.04 33.1808 24.94 33.7008 24.74C34.2408 24.52 34.8008 24.21 35.3808 23.81C35.9808 23.41 36.5808 22.92 37.1808 22.34C37.0808 22.24 36.9808 22.16 36.8808 22.1C36.8008 22.02 36.7208 21.93 36.6408 21.83C36.2408 21.41 35.9208 20.95 35.6808 20.45C35.4408 19.95 35.2508 19.45 35.1108 18.95C34.9908 18.43 34.9208 17.92 34.9008 17.42C34.8808 16.9 34.8908 16.41 34.9308 15.95C33.7508 16.79 32.8008 17.65 32.0808 18.53C31.3808 19.41 30.8808 20.25 30.5808 21.05C30.3008 21.85 30.2108 22.57 30.3108 23.21C30.4108 23.85 30.6708 24.33 31.0908 24.65ZM38.0508 20.42C38.1308 20.52 38.2008 20.61 38.2608 20.69C38.3208 20.77 38.4008 20.85 38.5008 20.93C38.8008 20.55 39.0908 20.17 39.3708 19.79C39.6708 19.39 39.9608 18.97 40.2408 18.53C40.9408 17.39 41.4408 16.46 41.7408 15.74C42.0408 15.02 42.1708 14.46 42.1308 14.06C42.1108 13.64 41.9508 13.36 41.6508 13.22C41.3708 13.08 40.9908 13.03 40.5108 13.07C40.1308 13.11 39.7608 13.25 39.4008 13.49C39.0408 13.73 38.7108 14.04 38.4108 14.42C38.1108 14.78 37.8508 15.21 37.6308 15.71C37.4308 16.19 37.3008 16.7 37.2408 17.24C37.1808 17.76 37.2108 18.3 37.3308 18.86C37.4508 19.4 37.6908 19.92 38.0508 20.42ZM60.3727 29.3C59.5927 28.9 59.1827 28.34 59.1427 27.62C59.1027 26.9 59.2727 26.12 59.6527 25.28C60.0527 24.44 60.5827 23.58 61.2427 22.7C61.9227 21.82 62.5727 21.02 63.1927 20.3C63.8127 19.58 64.3227 18.93 64.7227 18.35C65.1427 17.77 65.4127 17.32 65.5327 17C65.6727 16.66 65.6427 16.46 65.4427 16.4C65.2627 16.34 64.9027 16.47 64.3627 16.79C64.0827 16.95 63.8227 17.11 63.5827 17.27C63.3627 17.43 63.1427 17.59 62.9227 17.75C62.7227 17.89 62.5227 18.03 62.3227 18.17C62.1427 18.31 61.9427 18.44 61.7227 18.56C60.4427 19.56 59.1927 20.62 57.9727 21.74C56.7727 22.86 55.6727 23.92 54.6727 24.92C53.6927 25.9 52.8527 26.77 52.1527 27.53C51.4727 28.27 51.0227 28.77 50.8027 29.03C50.4027 28.91 50.0227 28.66 49.6627 28.28C49.3027 27.9 49.0427 27.56 48.8827 27.26C49.4227 26.54 50.0027 25.77 50.6227 24.95C51.2427 24.11 51.8727 23.26 52.5127 22.4C53.1527 21.52 53.7727 20.66 54.3727 19.82C54.9927 18.96 55.5627 18.16 56.0827 17.42C56.3027 17.02 56.3627 16.81 56.2627 16.79C56.1827 16.75 55.7927 16.88 55.0927 17.18C53.8927 17.88 52.7927 18.64 51.7927 19.46C50.8127 20.26 49.9427 21.04 49.1827 21.8C48.4227 22.56 47.7827 23.25 47.2627 23.87C46.7427 24.47 46.3527 24.92 46.0927 25.22C45.5727 25.84 45.0527 26.44 44.5327 27.02C44.0127 27.6 43.4827 28.15 42.9427 28.67C42.6827 28.69 42.4427 28.63 42.2227 28.49C41.9827 28.33 41.7827 28.14 41.6227 27.92C41.4427 27.68 41.3027 27.43 41.2027 27.17C41.1027 26.91 41.0527 26.67 41.0527 26.45C41.5727 25.49 42.3127 24.27 43.2727 22.79C44.2327 21.31 45.2827 19.71 46.4227 17.99C47.0827 17.01 47.7427 16.02 48.4027 15.02C49.0627 14.02 49.7127 13.04 50.3527 12.08C50.4727 11.98 50.7227 11.93 51.1027 11.93C51.4827 11.91 51.8727 11.95 52.2727 12.05C52.6727 12.13 53.0227 12.26 53.3227 12.44C53.6227 12.6 53.7527 12.8 53.7127 13.04C52.1527 14.62 50.7327 16.18 49.4527 17.72C48.1927 19.24 47.0827 20.73 46.1227 22.19C47.0827 21.33 48.0727 20.45 49.0927 19.55C50.1127 18.65 51.1027 17.81 52.0627 17.03C53.0427 16.23 53.9527 15.51 54.7927 14.87C55.6527 14.23 56.3927 13.74 57.0127 13.4C58.2527 12.7 59.2327 12.28 59.9527 12.14C60.6927 12 61.1427 12.13 61.3027 12.53C61.4827 12.91 61.3527 13.55 60.9127 14.45C60.4927 15.35 59.7427 16.49 58.6627 17.87C58.1027 18.57 57.6627 19.14 57.3427 19.58C57.0227 20.02 56.7727 20.37 56.5927 20.63C56.6727 20.57 56.7527 20.51 56.8327 20.45C56.9127 20.37 57.0027 20.3 57.1027 20.24C57.4227 19.94 57.8027 19.6 58.2427 19.22C58.7027 18.82 59.1827 18.41 59.6827 17.99C60.1827 17.57 60.6827 17.16 61.1827 16.76C61.6827 16.34 62.1427 15.97 62.5627 15.65C62.9827 15.31 63.3327 15.03 63.6127 14.81C63.9127 14.57 64.1027 14.42 64.1827 14.36C65.4427 13.44 66.5427 12.84 67.4827 12.56C68.4427 12.28 69.1227 12.31 69.5227 12.65C69.9427 12.97 70.0227 13.59 69.7627 14.51C69.5027 15.41 68.8027 16.58 67.6627 18.02C66.6027 19.36 65.7227 20.5 65.0227 21.44C64.3227 22.36 63.7927 23.13 63.4327 23.75C63.0927 24.35 62.9127 24.82 62.8927 25.16C62.8927 25.5 63.0627 25.75 63.4027 25.91C63.5827 25.91 63.9527 25.74 64.5127 25.4C65.0727 25.04 65.7127 24.59 66.4327 24.05C67.1727 23.51 67.9327 22.91 68.7127 22.25C69.5127 21.57 70.2427 20.9 70.9027 20.24C71.7027 20.08 72.0527 20.46 71.9527 21.38C70.9527 22.52 69.9127 23.58 68.8327 24.56C67.7527 25.52 66.6927 26.36 65.6527 27.08C64.6327 27.78 63.6627 28.33 62.7427 28.73C61.8227 29.13 61.0327 29.32 60.3727 29.3ZM71.0911 27.62C70.3311 27.08 69.8411 26.44 69.6211 25.7C69.3811 24.94 69.3611 24.14 69.5611 23.3C69.7411 22.44 70.0911 21.56 70.6111 20.66C71.1311 19.74 71.7511 18.86 72.4711 18.02C73.2111 17.16 74.0211 16.36 74.9011 15.62C75.8011 14.88 76.7011 14.24 77.6011 13.7L77.6311 13.64C77.8311 13.24 78.1911 12.88 78.7111 12.56C79.2511 12.22 79.8611 11.95 80.5411 11.75C81.2211 11.53 81.9311 11.38 82.6711 11.3C83.4311 11.2 84.1211 11.18 84.7411 11.24C85.3811 11.28 85.9211 11.4 86.3611 11.6C86.8211 11.8 87.0911 12.08 87.1711 12.44C87.2911 12.98 87.2511 13.62 87.0511 14.36C86.8511 15.08 86.5311 15.85 86.0911 16.67C85.6711 17.49 85.1511 18.34 84.5311 19.22C83.9111 20.08 83.2311 20.93 82.4911 21.77C83.2111 21.87 83.9711 21.8 84.7711 21.56C85.5711 21.3 86.3511 20.85 87.1111 20.21C87.4511 20.17 87.7111 20.29 87.8911 20.57C88.0911 20.85 88.1711 21.13 88.1311 21.41C87.0311 22.37 85.8511 23 84.5911 23.3C83.3511 23.58 82.1911 23.57 81.1111 23.27C80.2311 24.15 79.3211 24.95 78.3811 25.67C77.4611 26.39 76.5611 26.97 75.6811 27.41C74.8011 27.83 73.9611 28.08 73.1611 28.16C72.3811 28.22 71.6911 28.04 71.0911 27.62ZM73.1611 24.65C73.4811 24.89 73.8611 25.02 74.3011 25.04C74.7611 25.04 75.2511 24.94 75.7711 24.74C76.3111 24.52 76.8711 24.21 77.4511 23.81C78.0511 23.41 78.6511 22.92 79.2511 22.34C79.1511 22.24 79.0511 22.16 78.9511 22.1C78.8711 22.02 78.7911 21.93 78.7111 21.83C78.3111 21.41 77.9911 20.95 77.7511 20.45C77.5111 19.95 77.3211 19.45 77.1811 18.95C77.0611 18.43 76.9911 17.92 76.9711 17.42C76.9511 16.9 76.9611 16.41 77.0011 15.95C75.8211 16.79 74.8711 17.65 74.1511 18.53C73.4511 19.41 72.9511 20.25 72.6511 21.05C72.3711 21.85 72.2811 22.57 72.3811 23.21C72.4811 23.85 72.7411 24.33 73.1611 24.65ZM80.1211 20.42C80.2011 20.52 80.2711 20.61 80.3311 20.69C80.3911 20.77 80.4711 20.85 80.5711 20.93C80.8711 20.55 81.1611 20.17 81.4411 19.79C81.7411 19.39 82.0311 18.97 82.3111 18.53C83.0111 17.39 83.5111 16.46 83.8111 15.74C84.1111 15.02 84.2411 14.46 84.2011 14.06C84.1811 13.64 84.0211 13.36 83.7211 13.22C83.4411 13.08 83.0611 13.03 82.5811 13.07C82.2011 13.11 81.8311 13.25 81.4711 13.49C81.1111 13.73 80.7811 14.04 80.4811 14.42C80.1811 14.78 79.9211 15.21 79.7011 15.71C79.5011 16.19 79.3711 16.7 79.3111 17.24C79.2511 17.76 79.2811 18.3 79.4011 18.86C79.5211 19.4 79.7611 19.92 80.1211 20.42ZM90.623 29.3C90.103 29.04 89.753 28.7 89.573 28.28C89.413 27.86 89.363 27.4 89.423 26.9C89.503 26.4 89.673 25.87 89.933 25.31C90.213 24.73 90.543 24.15 90.923 23.57C91.303 22.99 91.713 22.42 92.153 21.86C92.593 21.3 93.023 20.78 93.443 20.3C94.083 19.58 94.603 18.93 95.003 18.35C95.423 17.77 95.693 17.32 95.813 17C95.933 16.66 95.903 16.46 95.723 16.4C95.543 16.34 95.183 16.47 94.643 16.79C94.343 16.95 94.073 17.12 93.833 17.3C93.593 17.46 93.363 17.62 93.143 17.78C92.963 17.92 92.783 18.06 92.603 18.2C92.423 18.32 92.223 18.44 92.003 18.56C91.143 19.22 90.293 19.92 89.453 20.66C88.633 21.38 87.843 22.1 87.083 22.82C86.323 23.54 85.613 24.24 84.953 24.92C84.273 25.58 83.673 26.19 83.153 26.75C82.633 27.29 82.193 27.76 81.833 28.16C81.473 28.56 81.223 28.85 81.083 29.03C80.643 28.91 80.253 28.65 79.913 28.25C79.553 27.85 79.293 27.51 79.133 27.23C79.653 26.77 80.193 26.3 80.753 25.82C81.313 25.32 81.903 24.8 82.523 24.26C84.103 22.86 85.863 21.33 87.803 19.67C89.743 17.99 91.953 16.22 94.433 14.36C95.693 13.44 96.793 12.84 97.733 12.56C98.693 12.28 99.373 12.31 99.773 12.65C100.193 12.97 100.273 13.59 100.013 14.51C99.773 15.41 99.083 16.58 97.943 18.02C96.883 19.36 96.003 20.5 95.303 21.44C94.603 22.36 94.073 23.13 93.713 23.75C93.373 24.35 93.193 24.82 93.173 25.16C93.173 25.5 93.333 25.75 93.653 25.91C93.853 25.91 94.253 25.75 94.853 25.43C95.453 25.09 96.133 24.66 96.893 24.14C97.653 23.6 98.433 22.99 99.233 22.31C100.053 21.63 100.773 20.93 101.393 20.21C101.773 20.17 102.043 20.27 102.203 20.51C102.383 20.73 102.463 21.02 102.443 21.38C101.503 22.52 100.483 23.58 99.383 24.56C98.283 25.52 97.193 26.36 96.113 27.08C95.033 27.78 94.013 28.33 93.053 28.73C92.093 29.13 91.283 29.32 90.623 29.3ZM97.0598 29.78C96.5398 29.34 96.3298 28.77 96.4298 28.07C96.5298 27.35 96.8198 26.58 97.2998 25.76C97.7598 24.92 98.3398 24.05 99.0398 23.15C99.7198 22.25 100.4 21.37 101.08 20.51C101.66 19.79 102.23 19.07 102.79 18.35C103.35 17.63 103.85 16.94 104.29 16.28C104.75 15.6 105.13 14.95 105.43 14.33C105.75 13.71 105.95 13.14 106.03 12.62C106.41 12.54 106.78 12.51 107.14 12.53C107.5 12.55 107.82 12.63 108.1 12.77C108.4 12.89 108.65 13.06 108.85 13.28C109.05 13.5 109.18 13.76 109.24 14.06C109.1 14.42 108.88 14.82 108.58 15.26C108.3 15.7 107.96 16.16 107.56 16.64C107.16 17.12 106.73 17.62 106.27 18.14C105.81 18.66 105.34 19.18 104.86 19.7C104.34 20.26 103.79 20.86 103.21 21.5C102.63 22.14 102.12 22.75 101.68 23.33C101.24 23.91 100.92 24.43 100.72 24.89C100.5 25.33 100.48 25.65 100.66 25.85C100.76 25.95 101.03 25.87 101.47 25.61C101.91 25.35 102.47 24.97 103.15 24.47C103.83 23.95 104.6 23.35 105.46 22.67C106.32 21.97 107.21 21.23 108.13 20.45C109.07 19.65 110 18.84 110.92 18.02C111.86 17.18 112.74 16.39 113.56 15.65C114.4 14.89 115.15 14.19 115.81 13.55C116.47 12.91 117 12.39 117.4 11.99C117.7 12.05 117.99 12.15 118.27 12.29C118.55 12.41 118.8 12.57 119.02 12.77C119.24 12.95 119.42 13.15 119.56 13.37C119.7 13.57 119.77 13.77 119.77 13.97C118.35 14.75 117.1 15.72 116.02 16.88C114.96 18.04 114.1 19.21 113.44 20.39C112.78 21.55 112.35 22.63 112.15 23.63C111.95 24.63 112.03 25.38 112.39 25.88C112.63 25.84 113.03 25.65 113.59 25.31C114.15 24.97 114.79 24.54 115.51 24.02C116.23 23.5 116.97 22.92 117.73 22.28C118.49 21.62 119.18 20.94 119.8 20.24C120.54 20.1 120.89 20.48 120.85 21.38C119.93 22.4 118.93 23.4 117.85 24.38C116.77 25.34 115.7 26.19 114.64 26.93C113.58 27.67 112.57 28.26 111.61 28.7C110.67 29.12 109.87 29.31 109.21 29.27C108.37 28.19 108.1 26.93 108.4 25.49C108.72 24.03 109.47 22.4 110.65 20.6C109.47 21.72 108.23 22.86 106.93 24.02C105.65 25.18 104.4 26.22 103.18 27.14C101.96 28.06 100.82 28.77 99.7598 29.27C98.6798 29.79 97.7798 29.96 97.0598 29.78ZM132.348 19.91C131.808 20.67 131.328 21.4 130.908 22.1C130.508 22.78 130.178 23.39 129.918 23.93C129.678 24.45 129.518 24.89 129.438 25.25C129.378 25.59 129.428 25.81 129.588 25.91C129.788 25.91 130.188 25.75 130.788 25.43C131.388 25.09 132.058 24.65 132.798 24.11C133.558 23.57 134.338 22.96 135.138 22.28C135.958 21.6 136.678 20.91 137.298 20.21C137.678 20.17 137.948 20.27 138.108 20.51C138.288 20.73 138.368 21.02 138.348 21.38C137.408 22.52 136.388 23.58 135.288 24.56C134.188 25.52 133.098 26.36 132.018 27.08C130.958 27.78 129.948 28.33 128.988 28.73C128.028 29.13 127.218 29.32 126.558 29.3C126.138 29.1 125.898 28.74 125.838 28.22C125.798 27.7 125.878 27.08 126.078 26.36C126.278 25.64 126.578 24.84 126.978 23.96C127.378 23.08 127.828 22.18 128.328 21.26C126.768 21.9 125.348 22.59 124.068 23.33C122.808 24.07 121.698 24.8 120.738 25.52C119.798 26.24 119.018 26.91 118.398 27.53C117.758 28.15 117.288 28.65 116.988 29.03C116.568 28.91 116.188 28.66 115.848 28.28C115.488 27.9 115.228 27.57 115.068 27.29C115.908 26.05 116.788 24.74 117.708 23.36C118.628 21.96 119.538 20.58 120.438 19.22C121.338 17.86 122.198 16.57 123.018 15.35C123.838 14.11 124.548 13.02 125.148 12.08C125.268 11.96 125.508 11.9 125.868 11.9C126.248 11.9 126.638 11.95 127.038 12.05C127.438 12.13 127.788 12.26 128.088 12.44C128.388 12.6 128.528 12.8 128.508 13.04C127.808 13.74 127.088 14.54 126.348 15.44C125.608 16.34 124.888 17.24 124.188 18.14C123.508 19.04 122.868 19.88 122.268 20.66C121.688 21.44 121.198 22.07 120.798 22.55C121.418 22.17 122.048 21.82 122.688 21.5C123.328 21.16 124.008 20.84 124.728 20.54C125.448 20.24 126.208 19.96 127.008 19.7C127.828 19.42 128.718 19.14 129.678 18.86C130.418 17.62 131.168 16.44 131.928 15.32C132.688 14.2 133.348 13.27 133.908 12.53C134.488 11.77 134.908 11.27 135.168 11.03C135.428 10.79 135.438 10.93 135.198 11.45C135.718 11.65 136.198 11.92 136.638 12.26C137.098 12.6 137.488 13.03 137.808 13.55C137.168 14.13 136.518 14.78 135.858 15.5C135.218 16.22 134.578 16.98 133.938 17.78L134.268 17.72L133.848 19.55L132.348 19.91ZM145.548 29.36C144.968 29.12 144.368 28.72 143.748 28.16C143.148 27.58 142.568 26.89 142.008 26.09C141.448 25.27 140.938 24.36 140.478 23.36C140.038 22.36 139.688 21.3 139.428 20.18C138.928 21.04 138.498 21.87 138.138 22.67C137.798 23.47 137.508 24.23 137.268 24.95C137.028 25.65 136.838 26.29 136.698 26.87C136.558 27.45 136.448 27.94 136.368 28.34C136.568 28.34 136.528 28.34 136.248 28.34C135.968 28.34 135.608 28.31 135.168 28.25C134.728 28.17 134.278 28.04 133.818 27.86C133.338 27.66 132.998 27.35 132.798 26.93C133.358 26.07 134.068 24.99 134.928 23.69C135.768 22.37 136.708 20.95 137.748 19.43C138.788 17.91 139.898 16.35 141.078 14.75C142.258 13.13 143.448 11.58 144.648 10.1L147.228 11.78C145.888 12.7 144.708 13.67 143.688 14.69C142.668 15.69 141.768 16.71 140.988 17.75C142.268 17.55 143.598 17.22 144.978 16.76C146.378 16.3 147.678 15.77 148.878 15.17C150.078 14.57 151.118 13.91 151.998 13.19C152.878 12.47 153.458 11.74 153.738 11C154.338 10.98 154.768 11.08 155.028 11.3C155.288 11.5 155.448 11.76 155.508 12.08C155.588 12.4 155.608 12.73 155.568 13.07C155.548 13.41 155.548 13.7 155.568 13.94C154.928 14.56 154.098 15.19 153.078 15.83C152.058 16.45 150.938 17.02 149.718 17.54C148.498 18.06 147.218 18.49 145.878 18.83C144.538 19.15 143.228 19.31 141.948 19.31C142.308 20.23 142.718 21.08 143.178 21.86C143.638 22.62 144.128 23.28 144.648 23.84C145.188 24.4 145.738 24.84 146.298 25.16C146.858 25.48 147.428 25.65 148.008 25.67C148.168 25.69 148.488 25.56 148.968 25.28C149.468 24.98 150.038 24.58 150.678 24.08C151.338 23.58 152.028 23 152.748 22.34C153.488 21.66 154.188 20.96 154.848 20.24C155.248 20.16 155.538 20.23 155.718 20.45C155.898 20.65 155.948 20.96 155.868 21.38C154.868 22.52 153.848 23.57 152.808 24.53C151.768 25.49 150.778 26.33 149.838 27.05C148.918 27.75 148.078 28.3 147.318 28.7C146.578 29.1 145.988 29.32 145.548 29.36Z" fill="#7535FC"/>
</svg>
